<svg width="16" height="22" viewBox="0 0 16 22" fill="none" xmlns="http://www.w3.org/2000/svg">
<path d="M13.766 0.00785749L13.882 0H14.118L14.234 0.00785749L14.354 0.0220004L14.458 0.0377153L14.674 0.0880022L14.808 0.130432L15.072 0.240434L15.252 0.342579L15.414 0.457296L15.58 0.605013L15.688 0.726016L15.796 0.876876L15.83 0.933449L15.884 1.03874L15.948 1.20845L15.968 1.29174L15.988 1.38603L15.996 1.4756L16 1.56832V20.4259C16 21.7647 14.028 22.464 12.7539 21.6563L12.5859 21.5369L0.585733 12.1081C0.241374 11.8375 0.0345074 11.4775 0.00394448 11.0956C-0.0266184 10.7137 0.121222 10.3361 0.41973 10.0338L0.585733 9.88607L12.5859 0.457296L12.7739 0.326864L12.9279 0.242006L13.12 0.157147L13.192 0.130432L13.326 0.0880022L13.542 0.0377153L13.648 0.0220004L13.768 0.00628614L13.766 0.00785749Z" fill="white"/>
</svg>
