<svg width="20" height="21" viewBox="0 0 20 21" fill="none" xmlns="http://www.w3.org/2000/svg">
<path d="M19.152 20.4999C18.9271 20.4999 18.7114 20.4121 18.5524 20.2558C18.3934 20.0996 18.3041 19.8876 18.3041 19.6666V1.33333C18.3041 1.11232 18.3934 0.900356 18.5524 0.744077C18.7114 0.587797 18.9271 0.5 19.152 0.5C19.3769 0.5 19.5926 0.587797 19.7516 0.744077C19.9106 0.900356 19.9999 1.11232 19.9999 1.33333V19.6666C20.0014 19.7764 19.9806 19.8855 19.9385 19.9873C19.8964 20.089 19.834 20.1815 19.755 20.2592C19.6759 20.3369 19.5818 20.3982 19.4783 20.4395C19.3747 20.4809 19.2638 20.5014 19.152 20.4999ZM15.308 9.84552C15.3182 10.2327 15.2367 10.6169 15.0699 10.9679C14.9031 11.3188 14.6557 11.6269 14.347 11.8677L4.04749 19.7455C3.67892 20.0199 3.24139 20.1899 2.78124 20.2344H2.52121C2.12979 20.2439 1.74184 20.16 1.39063 19.9899C0.972515 19.7893 0.620001 19.4775 0.373114 19.0899C0.127329 18.7036 -0.00203086 18.2567 2.41077e-05 17.801V3.18999C0.0023439 2.75195 0.123315 2.32242 0.350503 1.94555C0.58569 1.57133 0.917176 1.26472 1.31149 1.05666C1.70427 0.84801 2.14735 0.748134 2.59339 0.767704C3.03943 0.787274 3.47169 0.925554 3.84398 1.16778L14.1548 7.9233C14.4827 8.13553 14.754 8.42108 14.9462 8.75663C15.1491 9.08802 15.2728 9.46033 15.308 9.84552Z" fill="white"/>
</svg>
