<svg width="20" height="35" viewBox="0 0 20 35" fill="none" xmlns="http://www.w3.org/2000/svg">
<path d="M20 17.5C20.0007 17.957 19.9216 18.4066 19.7703 18.8049C19.6189 19.2033 19.4005 19.5368 19.1364 19.7732L2.76364 34.6037C2.4876 34.854 2.17144 34.9907 1.84782 34.9995C1.52419 35.0084 1.20483 34.8892 0.922727 34.6542C0.643307 34.4229 0.410541 34.0855 0.248368 33.6768C0.0861948 33.2682 0.000466884 32.8029 0 32.3289V2.67114C0.000466884 2.19713 0.0861948 1.73185 0.248368 1.32316C0.410541 0.914462 0.643307 0.577105 0.922727 0.345775C1.20483 0.110796 1.52419 -0.00841227 1.84782 0.000461618C2.17144 0.0093355 2.4876 0.14597 2.76364 0.396254L19.1364 15.2268C19.4005 15.4632 19.6189 15.7967 19.7703 16.1951C19.9216 16.5934 20.0007 17.043 20 17.5Z" fill="white"/>
</svg>
