<svg width="20" height="21" viewBox="0 0 20 21" fill="none" xmlns="http://www.w3.org/2000/svg">
<path d="M0.848007 0.500076C1.07289 0.500076 1.28857 0.587873 1.44759 0.744152C1.6066 0.900433 1.69594 1.11239 1.69594 1.33341L1.69594 19.6667C1.69594 19.8877 1.6066 20.0996 1.44759 20.2559C1.28857 20.4122 1.07289 20.5 0.848007 20.5C0.623123 20.5 0.407446 20.4122 0.248428 20.2559C0.0894108 20.0996 7.62939e-05 19.8877 7.62939e-05 19.6667L7.62939e-05 1.33341C-0.00144577 1.22356 0.0194473 1.11452 0.0615215 1.01274C0.103596 0.910965 0.165997 0.818504 0.245039 0.740824C0.324081 0.663141 0.418163 0.601814 0.521727 0.560465C0.62529 0.519115 0.736235 0.498581 0.848007 0.500076ZM4.69197 11.1545C4.68181 10.7673 4.76333 10.3831 4.9301 10.0321C5.09687 9.68119 5.34433 9.37314 5.65296 9.13227L15.9525 1.25452C16.3211 0.980076 16.7586 0.810076 17.2188 0.765631H17.4788C17.8702 0.75609 18.2582 0.839968 18.6094 1.01007C19.0275 1.21068 19.38 1.52248 19.6269 1.91007C19.8727 2.29642 20.002 2.74331 20 3.19896L20 17.81C19.9977 18.248 19.8767 18.6776 19.6495 19.0544C19.4143 19.4287 19.0828 19.7353 18.6885 19.9433C18.2957 20.152 17.8527 20.2519 17.4066 20.2323C16.9606 20.2127 16.5283 20.0744 16.156 19.8322L5.84516 13.0767C5.51729 12.8645 5.24595 12.5789 5.05375 12.2434C4.85088 11.912 4.72717 11.5397 4.69197 11.1545Z" fill="white"/>
</svg>
